P3
# COM4521 Assignment test output
16
16
255
82 87 95	145 155 163	104 112 117	101 107 113	129 136 141	144 151 156	143 149 153	192 198 202	229 233 236	245 245 247	254 254 254	252 252 252	255 255 255	175 177 179	189 191 193	255 255 255
152 154 156	135 140 144	103 110 115	102 110 114	142 149 153	132 139 144	154 161 165	225 229 232	253 254 255	250 251 251	255 254 254	253 253 253	255 255 255	220 220 222	154 156 158	255 255 255
251 250 248	219 218 215	46 50 54	25 30 36	81 88 91	109 116 120	172 182 186	218 227 230	255 255 255	255 255 255	255 255 255	255 255 255	255 255 255	255 255 255	140 140 141	211 212 211
205 208 211	216 216 214	149 141 133	96 90 86	62 61 61	41 44 47	48 54 57	79 85 89	143 146 147	204 206 207	246 247 247	255 255 255	255 255 255	255 255 255	168 167 168	146 147 145
198 199 201	194 196 200	191 203 214	189 203 218	177 188 212	180 173 178	164 147 135	98 96 96	53 58 64	49 52 58	66 71 75	104 109 113	160 164 166	217 220 220	240 240 241	120 120 117
225 215 207	155 176 198	13 117 208	61 136 178	121 154 127	137 176 182	165 200 232	227 226 229	215 212 211	188 188 186	149 150 150	100 102 106	71 75 81	72 77 83	108 113 119	76 80 84
225 215 206	153 175 198	51 133 210	106 151 181	174 171 107	97 147 140	7 119 211	152 183 211	249 233 219	201 201 211	216 215 222	232 231 230	216 215 215	185 185 186	143 145 147	130 134 139
227 218 209	172 185 200	7 117 203	133 155 185	255 204 199	204 184 191	53 135 197	119 168 208	242 226 213	178 178 191	162 163 181	201 202 204	226 226 220	227 227 223	232 231 228	224 224 223
201 199 201	179 174 185	65 139 202	92 150 192	142 162 183	165 166 175	53 134 195	96 162 214	243 225 210	196 196 201	182 182 191	176 177 188	181 182 192	184 185 194	190 190 196	202 203 204
187 189 197	167 155 167	138 147 176	4 118 211	87 133 171	104 142 173	29 134 215	135 156 188	220 207 202	204 204 205	160 161 178	175 175 187	185 186 194	172 173 186	161 163 179	185 186 193
205 206 208	194 196 200	178 164 173	97 126 175	101 127 165	85 124 169	71 128 189	165 154 170	192 190 196	205 205 206	164 164 180	203 204 204	229 229 219	218 218 212	211 212 209	199 200 202
196 198 202	207 209 209	207 209 209	200 183 182	127 139 173	104 125 169	179 161 170	200 197 199	212 214 211	203 203 204	159 160 176	168 168 181	162 162 178	166 166 180	178 178 188	190 191 196
199 206 208	199 204 207	206 211 211	209 214 214	211 208 205	210 203 201	203 205 206	211 213 211	208 210 209	205 206 206	177 178 188	161 163 178	160 162 178	160 161 177	152 153 172	172 174 185
194 187 193	200 195 200	211 204 210	217 212 216	225 222 223	230 230 228	227 228 227	224 225 226	223 225 226	224 227 227	232 235 233	234 238 234	230 233 231	227 229 229	225 227 228	218 220 223
112 42 57	111 47 59	92 44 56	95 51 63	101 55 67	107 60 72	112 66 78	116 69 82	118 73 84	119 76 87	120 80 91	120 82 93	117 84 93	116 85 93	114 85 93	111 84 92
157 141 137	139 124 119	10 5 5	0 0 0	0 0 0	1 0 0	1 0 0	2 0 0	2 0 0	2 0 0	3 0 0	3 0 0	2 0 0	2 0 0	3 0 0	3 0 0